<?xml version="1.0" standalone="no"?>
<!DOCTYPE svg PUBLIC "-//W3C//DTD SVG 20010904//EN"
 "http://www.w3.org/TR/2001/REC-SVG-20010904/DTD/svg10.dtd">
<svg version="1.0" xmlns="http://www.w3.org/2000/svg"
 width="562.000000pt" height="562.000000pt" viewBox="0 0 562.000000 562.000000"
 preserveAspectRatio="xMidYMid meet">
<metadata>
Created by potrace 1.11, written by Peter Selinger 2001-2013
</metadata>
<g transform="translate(0.000000,562.000000) scale(0.100000,-0.100000)"
fill="#000000" stroke="none">
<path d="M3630 5601 c-8 -6 -18 -7 -22 -5 -4 3 -8 1 -8 -5 0 -6 -14 -18 -32
-27 -18 -9 -38 -23 -46 -30 -7 -8 -18 -14 -24 -14 -6 0 -9 -2 -6 -5 8 -8 -70
-83 -93 -90 -11 -4 -17 -10 -14 -15 3 -5 -3 -11 -12 -14 -10 -3 -33 -20 -50
-36 -18 -17 -33 -29 -33 -26 0 3 -21 -14 -46 -39 -26 -24 -51 -42 -55 -39 -5
3 -9 1 -9 -4 0 -10 -56 -47 -73 -50 -5 0 -17 -11 -28 -23 -10 -12 -19 -19 -19
-15 0 4 -14 -9 -31 -29 -21 -24 -37 -34 -48 -30 -8 3 -12 3 -9 -1 4 -3 -2 -16
-13 -28 -11 -11 -21 -19 -22 -16 -3 6 -24 -11 -75 -61 -33 -31 -41 -35 -62
-26 -42 17 -62 18 -79 4 -23 -20 -43 -25 -66 -17 -14 5 -36 -1 -70 -20 -55
-29 -73 -28 -112 9 -22 21 -22 21 -33 2 -5 -11 -10 -39 -10 -62 0 -40 -5 -48
-59 -99 -73 -68 -86 -79 -136 -110 -47 -29 -115 -95 -115 -112 0 -6 -3 -8 -6
-5 -9 9 -43 -32 -50 -60 -4 -12 -10 -20 -15 -17 -5 3 -9 0 -9 -6 0 -15 -26
-41 -34 -33 -3 4 -6 -1 -6 -11 0 -9 -7 -19 -15 -22 -8 -4 -15 -12 -15 -20 0
-7 -6 -17 -14 -21 -18 -10 -56 -82 -56 -105 0 -10 -5 -18 -11 -18 -5 0 -8 -4
-5 -8 3 -5 -8 -23 -24 -42 -20 -24 -34 -31 -49 -27 -14 3 -25 -2 -36 -19 -9
-14 -13 -28 -10 -33 6 -10 -38 -59 -74 -82 -23 -14 -23 -16 -8 -45 13 -25 16
-79 6 -91 -1 -2 -2 -6 -3 -10 -15 -67 -29 -79 -74 -61 -15 6 -29 12 -32 12 -3
1 -35 16 -72 34 -69 33 -100 38 -141 23 -34 -13 -40 -36 -18 -75 24 -41 21
-101 -5 -121 -21 -16 -94 -20 -94 -6 0 14 -118 10 -131 -5 -6 -7 -12 -27 -13
-44 -2 -31 -22 -51 -55 -56 -19 -3 -32 -26 -22 -39 4 -5 6 -16 5 -22 -1 -7 -2
-17 -3 -23 0 -5 -19 -26 -41 -46 -22 -21 -40 -45 -40 -55 0 -10 -4 -20 -9 -23
-18 -12 1 -141 28 -190 11 -19 23 -50 26 -70 6 -32 4 -37 -25 -55 -18 -10 -53
-22 -79 -26 -79 -13 -85 -14 -116 -20 -57 -12 -49 -42 19 -70 19 -8 40 -20 48
-27 19 -18 56 -38 68 -38 17 0 80 -54 80 -69 0 -4 -14 -22 -30 -40 -17 -17
-28 -31 -25 -31 4 0 -2 -9 -48 -62 -9 -12 -17 -24 -17 -27 0 -3 -14 -22 -30
-41 -35 -41 -37 -59 -11 -87 10 -11 16 -25 12 -32 -7 -11 -96 -47 -136 -55
-11 -2 -33 -9 -50 -16 -16 -6 -31 -11 -32 -11 -7 1 -80 -33 -92 -42 -7 -6 -19
-12 -26 -13 -14 -2 -113 -74 -101 -74 3 0 -2 -8 -12 -18 -38 -41 -47 -59 -49
-96 -1 -22 -7 -42 -12 -46 -7 -4 -3 -19 9 -43 11 -20 17 -37 14 -37 -4 0 -1
-6 5 -13 6 -8 8 -17 4 -20 -3 -4 0 -7 8 -7 8 0 23 -18 33 -40 11 -22 23 -40
28 -40 5 0 6 -5 3 -10 -3 -5 -1 -10 4 -10 6 0 11 -7 11 -16 0 -8 5 -12 10 -9
6 3 10 2 10 -3 0 -5 13 -22 30 -38 16 -16 30 -35 30 -42 0 -7 4 -11 8 -8 5 3
17 -9 27 -26 10 -17 25 -38 34 -48 34 -37 52 -62 47 -68 -3 -3 -1 -11 5 -19 6
-7 8 -13 4 -13 -4 0 0 -11 9 -25 9 -14 13 -25 9 -25 -5 0 0 -5 10 -11 9 -6 15
-14 12 -19 -3 -4 2 -11 11 -14 8 -3 12 -10 9 -16 -3 -5 -1 -10 4 -10 6 0 11
-9 11 -19 0 -11 5 -23 10 -26 11 -7 105 -196 102 -207 -1 -3 5 -12 13 -18 8
-7 15 -20 15 -30 0 -10 6 -23 14 -29 8 -7 17 -22 20 -34 3 -13 29 -72 57 -132
29 -61 53 -112 54 -115 3 -16 40 -86 48 -91 5 -4 7 -11 3 -17 -3 -5 1 -15 9
-22 8 -7 15 -17 15 -22 0 -13 61 -140 76 -158 7 -8 13 -19 15 -25 3 -18 12
-40 19 -45 3 -3 24 -41 45 -84 38 -79 121 -176 151 -176 8 0 14 -4 14 -10 0
-5 9 -10 19 -10 11 0 23 -4 26 -10 3 -5 23 -14 45 -20 21 -6 54 -17 74 -25 20
-8 37 -14 39 -13 2 2 15 -5 30 -15 15 -9 45 -18 67 -20 22 -1 40 -5 40 -9 0
-5 14 -8 30 -8 17 0 47 -7 67 -15 40 -17 81 -26 133 -30 19 -2 35 -4 35 -5 0
-1 23 -3 50 -5 28 -2 68 -6 90 -9 91 -11 164 -18 231 -20 39 -2 76 -6 82 -10
7 -4 12 -2 12 4 0 7 6 8 18 2 9 -6 167 -8 362 -7 370 3 470 8 610 30 19 3 58
7 85 10 68 6 125 14 155 21 14 4 34 8 45 10 29 5 60 12 60 14 0 2 21 7 50 12
11 2 25 6 30 10 6 3 28 10 50 14 50 10 45 9 80 23 17 6 50 19 75 27 68 24 120
48 120 57 0 4 5 7 11 7 19 0 119 72 113 81 -3 5 2 9 10 9 9 0 16 5 16 11 0 6
12 26 26 45 15 19 23 34 18 34 -4 0 -1 6 8 12 15 12 49 68 91 151 10 20 23 37
29 37 5 0 7 4 4 9 -4 5 5 32 19 59 14 27 25 55 25 61 0 6 5 11 10 11 6 0 10 7
10 16 0 17 40 116 50 124 7 6 22 38 26 57 1 7 10 20 19 29 9 9 30 44 47 78 17
33 35 64 40 67 5 3 9 9 9 13 -3 15 12 56 20 56 5 0 9 7 9 16 0 9 9 28 20 44
11 15 17 30 13 34 -3 3 -1 6 5 6 7 0 12 6 12 14 0 8 7 16 15 20 8 3 15 12 15
21 0 8 5 15 11 15 5 0 8 4 5 9 -3 5 1 12 10 15 8 3 12 10 9 16 -3 5 -2 10 3
10 4 0 19 19 32 42 13 24 26 45 30 48 3 3 14 21 23 41 9 20 23 42 32 49 8 7
13 16 10 20 -3 5 0 14 7 22 25 26 79 108 72 108 -4 0 3 8 14 19 12 10 22 25
22 33 0 9 14 31 30 49 17 19 33 44 36 56 3 13 9 21 13 18 4 -2 8 1 9 8 0 7 7
29 15 51 18 50 5 100 -38 139 -30 28 -83 61 -98 62 -5 0 -14 8 -21 18 -7 9
-25 17 -40 17 -14 0 -26 5 -26 10 0 6 -7 10 -15 10 -9 0 -18 7 -21 15 -4 8
-10 12 -15 10 -5 -3 -21 1 -37 9 -16 8 -32 12 -36 9 -3 -4 -6 -1 -6 5 0 9 -28
24 -50 27 -3 0 -9 3 -15 6 -5 4 -18 5 -27 4 -10 -2 -18 1 -18 6 0 5 -9 9 -20
9 -11 0 -20 4 -20 9 0 7 -31 20 -48 21 -1 0 -9 5 -16 12 -12 11 -10 19 7 53
12 22 22 42 22 45 1 3 5 14 10 25 29 72 45 118 45 135 0 10 6 25 13 32 7 7 14
15 14 18 0 3 5 21 10 40 8 28 10 155 3 155 -1 0 -4 32 -6 70 -6 99 -10 127
-22 155 -9 23 -20 53 -22 65 -1 2 -12 24 -25 47 -14 24 -30 54 -35 68 -6 13
-14 27 -18 30 -4 3 -15 22 -24 43 -10 20 -23 37 -28 37 -6 0 -8 5 -5 10 3 6 0
10 -7 10 -7 0 -28 18 -47 40 -19 22 -41 40 -48 40 -8 0 -11 5 -8 10 3 6 -1 10
-9 10 -9 0 -16 4 -16 8 0 5 -18 18 -40 31 -22 12 -40 27 -40 33 0 6 -3 8 -7 5
-3 -4 -15 5 -25 20 -10 16 -18 25 -18 21 0 -4 -13 6 -28 22 -16 16 -32 27 -35
23 -4 -3 -7 -1 -7 5 0 7 -6 12 -13 12 -7 0 -21 11 -31 24 -10 14 -30 28 -46
31 -15 3 -37 15 -48 25 -11 11 -35 29 -54 40 -18 11 -29 20 -24 20 6 0 -7 15
-27 34 -20 18 -34 36 -30 40 3 3 1 6 -6 6 -6 0 -30 19 -51 42 -22 23 -40 38
-40 35 0 -3 -15 10 -34 28 -18 19 -38 35 -43 35 -6 0 -13 7 -17 15 -3 8 -12
15 -21 15 -8 0 -15 4 -15 9 0 10 -25 26 -85 54 -16 8 -36 21 -44 30 -7 10 -19
17 -25 17 -26 1 -94 94 -76 105 5 3 7 15 4 28 -12 53 -16 74 -19 102 -6 62
-18 130 -23 140 -4 6 -7 24 -8 40 0 17 -4 53 -9 80 -4 28 -9 64 -10 80 -2 17
-7 46 -11 65 -9 38 -10 254 -2 310 3 19 9 55 13 80 4 25 10 47 13 50 4 3 9 14
10 25 2 11 8 22 13 23 5 2 7 7 4 12 -6 10 31 114 57 155 36 60 47 89 35 97
-15 10 -19 10 -37 -1z"/>
</g>
</svg>
